<?xml version="1.0" encoding="UTF-8"?>
<svg version="1.1" xmlns="http://www.w3.org/2000/svg" width="48" height="48">
<path d="M0 0 C0.79921875 -0.02900391 1.5984375 -0.05800781 2.421875 -0.08789062 C8.74544409 -0.15549457 12.19278011 1.47313426 16.89453125 5.83984375 C19.55335607 9.04999679 20.62152102 11.25703185 21.25 15.3125 C21.40082031 16.24707031 21.55164062 17.18164062 21.70703125 18.14453125 C22.51756846 24.94057401 22.56655392 29.78731098 18.25 35.3125 C12.87853049 41.12510469 7.78740089 43.33874404 -0.125 43.6875 C-6.46685522 43.54121569 -10.86393505 41.97171268 -15.5390625 37.6640625 C-18.67158829 34.26430702 -20.06403114 31.94105758 -20.75 27.3125 C-20.88921875 26.45011719 -21.0284375 25.58773438 -21.171875 24.69921875 C-21.9086064 18.63872589 -22.21717863 13.55743583 -18.75 8.3125 C-12.69530233 1.94888918 -8.74859032 0.1038203 0 0 Z M-1.75 3.3125 C-3.09919532 4.96635233 -4.43133728 6.634202 -5.75 8.3125 C-6.41 8.9725 -7.07 9.6325 -7.75 10.3125 C-5.44 10.3125 -3.13 10.3125 -0.75 10.3125 C-0.75 8.0025 -0.75 5.6925 -0.75 3.3125 C-1.08 3.3125 -1.41 3.3125 -1.75 3.3125 Z M1.25 3.3125 C1.25 5.6225 1.25 7.9325 1.25 10.3125 C3.56 10.3125 5.87 10.3125 8.25 10.3125 C7.27433888 9.14290013 6.294375 7.97688823 5.3125 6.8125 C4.49458984 5.83796875 4.49458984 5.83796875 3.66015625 4.84375 C3.19480469 4.3384375 2.72945312 3.833125 2.25 3.3125 C1.92 3.3125 1.59 3.3125 1.25 3.3125 Z M-12.75 7.3125 C-13.74 8.7975 -13.74 8.7975 -14.75 10.3125 C-13.1 9.9825 -11.45 9.6525 -9.75 9.3125 C-10.74 8.6525 -11.73 7.9925 -12.75 7.3125 Z M12.25 7.3125 C11.92 8.3025 11.59 9.2925 11.25 10.3125 C12.57 9.9825 13.89 9.6525 15.25 9.3125 C14.26 8.6525 13.27 7.9925 12.25 7.3125 Z M-16.75 12.3125 C-16.42 13.3025 -16.09 14.2925 -15.75 15.3125 C-16.74 15.8075 -16.74 15.8075 -17.75 16.3125 C-18.40213292 18.33713255 -18.40213292 18.33713255 -18.75 20.3125 C-16.44 20.3125 -14.13 20.3125 -11.75 20.3125 C-11.42 17.6725 -11.09 15.0325 -10.75 12.3125 C-12.73 12.3125 -14.71 12.3125 -16.75 12.3125 Z M-7.75 12.3125 C-9.11579868 16.25204953 -9.11579868 16.25204953 -9.75 20.3125 C-6.78 20.3125 -3.81 20.3125 -0.75 20.3125 C-0.75 17.6725 -0.75 15.0325 -0.75 12.3125 C-3.06 12.3125 -5.37 12.3125 -7.75 12.3125 Z M1.25 12.3125 C1.25 14.9525 1.25 17.5925 1.25 20.3125 C4.22 20.3125 7.19 20.3125 10.25 20.3125 C10.06535634 15.97065798 10.06535634 15.97065798 8.25 12.3125 C5.91702567 12.27157063 3.58294775 12.27008277 1.25 12.3125 Z M11.25 12.3125 C11.58 14.9525 11.91 17.5925 12.25 20.3125 C14.56 20.3125 16.87 20.3125 19.25 20.3125 C18.92 18.6625 18.59 17.0125 18.25 15.3125 C17.59 15.3125 16.93 15.3125 16.25 15.3125 C16.58 14.3225 16.91 13.3325 17.25 12.3125 C15.27 12.3125 13.29 12.3125 11.25 12.3125 Z M-18.75 22.3125 C-18.42 23.9625 -18.09 25.6125 -17.75 27.3125 C-17.09 27.3125 -16.43 27.3125 -15.75 27.3125 C-16.08 28.3025 -16.41 29.2925 -16.75 30.3125 C-14.77 30.3125 -12.79 30.3125 -10.75 30.3125 C-11.08 29.3225 -11.41 28.3325 -11.75 27.3125 C-11.78874921 25.64628384 -11.7950286 23.97855828 -11.75 22.3125 C-14.06 22.3125 -16.37 22.3125 -18.75 22.3125 Z M-9.75 22.3125 C-9.56535634 26.65434202 -9.56535634 26.65434202 -7.75 30.3125 C-5.41702567 30.35342937 -3.08294775 30.35491723 -0.75 30.3125 C-0.75 27.6725 -0.75 25.0325 -0.75 22.3125 C-3.72 22.3125 -6.69 22.3125 -9.75 22.3125 Z M1.25 22.3125 C1.25 24.9525 1.25 27.5925 1.25 30.3125 C3.56 30.3125 5.87 30.3125 8.25 30.3125 C9.61579868 26.37295047 9.61579868 26.37295047 10.25 22.3125 C7.28 22.3125 4.31 22.3125 1.25 22.3125 Z M12.25 22.3125 C11.92 24.9525 11.59 27.5925 11.25 30.3125 C13.23 30.3125 15.21 30.3125 17.25 30.3125 C16.92 29.3225 16.59 28.3325 16.25 27.3125 C16.91 26.9825 17.57 26.6525 18.25 26.3125 C18.90213292 24.28786745 18.90213292 24.28786745 19.25 22.3125 C16.94 22.3125 14.63 22.3125 12.25 22.3125 Z M-14.75 32.3125 C-13.76 33.3025 -12.77 34.2925 -11.75 35.3125 C-11.42 34.3225 -11.09 33.3325 -10.75 32.3125 C-12.07 32.3125 -13.39 32.3125 -14.75 32.3125 Z M-7.75 32.3125 C-6.77433888 33.48209987 -5.794375 34.64811177 -4.8125 35.8125 C-4.26722656 36.4621875 -3.72195312 37.111875 -3.16015625 37.78125 C-2.69480469 38.2865625 -2.22945312 38.791875 -1.75 39.3125 C-1.42 39.3125 -1.09 39.3125 -0.75 39.3125 C-0.75 37.0025 -0.75 34.6925 -0.75 32.3125 C-3.06 32.3125 -5.37 32.3125 -7.75 32.3125 Z M1.25 32.3125 C1.25 34.6225 1.25 36.9325 1.25 39.3125 C2.41959987 38.33683888 3.58561177 37.356875 4.75 36.375 C5.3996875 35.82972656 6.049375 35.28445312 6.71875 34.72265625 C7.2240625 34.25730469 7.729375 33.79195312 8.25 33.3125 C8.25 32.9825 8.25 32.6525 8.25 32.3125 C5.94 32.3125 3.63 32.3125 1.25 32.3125 Z M11.25 32.3125 C10.92 32.9725 10.59 33.6325 10.25 34.3125 C11.24 34.6425 12.23 34.9725 13.25 35.3125 C13.91 34.3225 14.57 33.3325 15.25 32.3125 C13.93 32.3125 12.61 32.3125 11.25 32.3125 Z " fill="#000000" transform="translate(23.75,2.6875)"/>
<path d="" fill="#000000" transform="translate(0,0)"/>
<path d="" fill="#000000" transform="translate(0,0)"/>
<path d="" fill="#000000" transform="translate(0,0)"/>
<path d="" fill="#000000" transform="translate(0,0)"/>
</svg>
