<svg width="1728" height="2937" viewBox="0 0 1728 2937" fill="none" xmlns="http://www.w3.org/2000/svg">
<g clip-path="url(#clip0_2219_108)">
<rect width="1728" height="2937" fill="url(#paint0_linear_2219_108)"/>
<path d="M428 1828.39C219.828 1788.4 83.7167 1850.59 80.3621 1852.15C80.2565 1852.2 80.2358 1852.19 80.1235 1852.22C-23.515 1880.4 7.81339 1958.56 14.2791 1972.38C14.8041 1973.5 14.2417 1974.84 13.0676 1975.24L-63.9806 2001.15C-65.5831 2001.69 -65.8355 2003.85 -64.4004 2004.74L15.0051 2054.19C15.2089 2054.32 15.434 2054.41 15.6694 2054.46L192 2089.78L492.883 2161.38C492.883 2161.38 638 2199.54 801.188 2204.55C1806.71 2235.39 1133 2295.88 1133 2295.88L492.883 2347.87C492.883 2347.87 15.5614 2414.82 -51.6884 2496.03C-118.938 2577.49 31.4331 2624.81 31.4331 2624.81C31.4331 2624.81 145.306 2644.84 248.557 2662.52C359.067 2690.3 1466.16 2624.81 1466.16 2624.81C1466.16 2624.81 1667.99 2591.41 1836.93 2567.69C2008.71 2557.1 2069.67 2493.34 2106.45 2373.73C2138.02 2271.04 2060.68 2223.95 2056.27 2221.36C2056.12 2221.28 2056.02 2221.2 2055.9 2221.09C2052.52 2217.98 1998.58 2170 1806.71 2089.78C1634.92 2017.97 639.069 1869.11 428 1828.39Z" fill="#BFA979"/>
<path d="M2625 24.2002C2625 24.2002 1660.32 149.324 1962.06 168.282C2360.55 243.482 2317.5 365.2 2317.5 365.2C2317.5 365.2 2346.45 393.252 2029.89 528.486C1713.33 663.72 1586.49 680.782 1586.49 680.782C1586.49 680.782 1168.17 870.377 1798 974.7C2007.53 1022.47 2175.43 1068.25 2250.93 1161.69C2406.5 1354.2 2329.95 1390.45 2329.95 1390.45C2329.95 1390.45 2263.74 1482.8 2161.42 1500.4C2054.9 1518.73 1905.87 1556.65 1712.33 1631.22C1544.62 1659.04 933.692 2078.72 933.692 2078.72C933.692 2078.72 134.23 2111.3 24.5256 2078.72C-77.9714 2057.99 -116 1769.61 -116 1769.61C-116 1769.61 154.241 1754.23 221 1658.7C394.5 1631.22 760.5 1412.2 760.5 1412.2L1209.24 1262.16C1209.24 1262.16 1341.58 1253.95 1246.25 1130.09C1148.48 1003.06 591.629 926.606 591.629 926.606C591.629 926.606 281.573 760.407 688.147 622.644C688.147 622.644 2223.97 409.278 798.5 142.2C-384.398 -79.4289 2625 24.2002 2625 24.2002Z" fill="#BFA979"/>
</g>
<defs>
<linearGradient id="paint0_linear_2219_108" x1="864" y1="16.643" x2="762.893" y2="2933.5" gradientUnits="userSpaceOnUse">
<stop offset="0.894125" stop-color="#CA8059"/>
</linearGradient>
<clipPath id="clip0_2219_108">
<rect width="1728" height="2937" fill="white"/>
</clipPath>
</defs>
</svg>
