<?xml version="1.0" encoding="UTF-8"?>
<svg id="Capa_2" xmlns="http://www.w3.org/2000/svg" version="1.1" viewBox="0 0 550.16 112.82">
  <!-- Generator: Adobe Illustrator 29.4.0, SVG Export Plug-In . SVG Version: 2.1.0 Build 152)  -->
  <defs>
    <style>
      .st0 {
        fill: #4c5ef7;
      }
    </style>
  </defs>
  <g id="Capa_1-2">
    <g id="logo_azul_Plenitas">
      <path class="st0" d="M37.76,112.82H0V0h37.76v112.82ZM94.17,0h-37.64v75.21h37.64V0Z"/>
      <path class="st0" d="M150.79,94.28V18.82h29.77c5.7,0,10.57,1.09,14.61,3.26s7.13,5.18,9.27,9.03c2.14,3.84,3.19,8.27,3.17,13.28.02,5.01-1.05,9.43-3.22,13.25s-5.31,6.8-9.4,8.95c-4.09,2.15-9.03,3.22-14.83,3.22h-18.98v-12.79h16.4c4.57,0,7.98-1.16,10.24-3.48,2.26-2.32,3.38-5.37,3.35-9.16.02-3.73-1.09-6.76-3.35-9.06s-5.7-3.46-10.32-3.46h-10.76v62.42h-15.95Z"/>
      <path class="st0" d="M233.4,18.82v75.46h-15.7V18.82h15.7Z"/>
      <path class="st0" d="M271.86,95.38c-5.8,0-10.79-1.18-14.98-3.56-4.19-2.37-7.41-5.73-9.67-10.08s-3.39-9.52-3.39-15.51,1.13-10.93,3.39-15.33,5.45-7.82,9.56-10.28c4.11-2.46,8.95-3.68,14.5-3.68,3.73,0,7.22.6,10.45,1.79,3.23,1.19,6.05,2.98,8.47,5.36s4.3,5.37,5.66,8.97c1.35,3.6,2.03,7.81,2.03,12.62v4.31h-47.79v-9.73h33.01c-.02-3.39-1.11-6.17-3.26-8.35-2.15-2.17-4.92-3.26-8.31-3.26-2.38,0-4.49.55-6.32,1.64-1.83,1.09-3.26,2.56-4.29,4.4s-1.56,3.87-1.58,6.08v9.25c0,4.23,1.15,7.55,3.46,9.99,2.31,2.43,5.43,3.65,9.36,3.65,2.6,0,4.86-.56,6.78-1.68s3.35-2.66,3.89-4.4h14.7c-.91,5.26-3.92,9.93-8.4,13.08-4.48,3.14-10.24,4.72-17.26,4.72h-.01Z"/>
      <path class="st0" d="M324,61.56v32.72h-15.7v-56.6h14.96v9.99h.66c1.25-3.29,3.35-5.9,6.3-7.83,2.95-1.93,6.52-2.89,10.72-2.89,3.93,0,7.36.86,10.28,2.58s5.2,4.17,6.82,7.35,2.43,6.97,2.43,11.37v36.04h-15.7v-33.23c.02-3.46-.86-6.17-2.65-8.12-1.79-1.95-4.26-2.93-7.41-2.93s-5.74,1.01-7.72,3.04c-1.98,2.03-2.98,4.87-3,8.53v-.02Z"/>
      <path class="st0" d="M372.55,15.39h16.08v15.29h-16.08v-15.29ZM372.82,94.28v-56.6h15.7v56.6h-15.7Z"/>
      <path class="st0" d="M431.15,37.68v11.79h-34.08v-11.79h34.08,0ZM404.8,24.12h15.7v52.62c-.05,1.45.15,2.57.61,3.37.45.8,1.09,1.36,1.9,1.68s1.74.48,2.8.48c.74,0,1.47-.06,2.21-.18s1.3-.23,1.69-.33l2.47,11.72c-.79.25-1.89.53-3.32.87-1.43.33-3.16.53-5.2.61-3.78.15-7.09-.36-9.93-1.51s-5.04-2.95-6.61-5.4c-1.57-2.44-2.35-5.51-2.32-9.19V24.12h0Z"/>
      <path class="st0" d="M548.9,54.2h-14.52c-.19-.91-.66-1.84-1.47-2.83s-1.88-1.79-3.21-2.4c-1.33-.6-2.89-.9-4.68-.9-2.43,0-4.48.51-6.15,1.53-1.67,1.02-2.51,2.38-2.51,4.07,0,1.35.54,2.49,1.62,3.43,1.08.93,2.94,1.68,5.56,2.25l10.24,2.06c10.86,2.21,16.31,7.32,16.36,15.33,0,3.73-1.09,6.99-3.26,9.78s-5.15,4.96-8.92,6.52c-3.77,1.56-8.11,2.34-13.02,2.34-7.49,0-13.46-1.57-17.89-4.7-4.43-3.13-7.23-7.3-7.83-13.21h15.57c.36,1.74,1.51,3.62,3.3,4.81,1.79,1.19,4.09,1.79,6.89,1.79s4.97-.53,6.65-1.6c1.68-1.07,2.54-2.45,2.56-4.15-.02-1.42-.63-2.6-1.81-3.52s-3-1.63-5.45-2.12l-9.8-1.95c-5.53-1.11-9.64-3.02-12.32-5.75-2.69-2.73-4.03-6.2-4.03-10.43,0-3.64.99-6.77,2.97-9.4s4.77-4.65,8.36-6.08c3.6-1.42,7.82-2.14,12.66-2.14,7.15,0,12.78,1.51,16.89,4.53s6.59,7.01,7.24,12.73h0Z"/>
      <path class="st0" d="M457.71,95.34c-3.61,0-6.83-.63-9.65-1.9-2.82-1.26-5.05-3.14-6.69-5.64-1.63-2.49-2.45-5.61-2.45-9.34,0-3.14.58-5.79,1.73-7.92,1.15-2.14,2.73-3.86,4.72-5.16s4.26-2.28,6.8-2.95c2.54-.66,5.21-1.13,8.01-1.4,3.29-.32,5.94-.65,7.96-.98,2.01-.33,3.48-.82,4.4-1.46.92-.64,1.37-1.57,1.35-2.8,0-2.38-.73-4.21-2.17-5.49-1.45-1.28-3.52-1.92-6.23-1.92s-8.39.23-9.88,5.98h-14.8c2.73-13.87,13.8-17.44,25.02-17.44,3.05,0,5.99.37,8.84,1.11s5.39,1.88,7.63,3.43c2.23,1.55,4.01,3.53,5.32,5.95s1.97,5.31,1.97,8.68v38.17h-14.89v-7.85h-.44c-.91,1.77-2.12,3.32-3.65,4.66-1.52,1.34-3.35,2.38-5.49,3.13-2.14.75-4.61,1.12-7.41,1.12v.02ZM462.21,84.51c2.31,0,4.35-.46,6.12-1.38s3.16-2.17,4.16-3.74c1.01-1.57,1.51-3.35,1.51-5.34v-6.01c-.49.32-1.16.61-2.01.87s-1.8.49-2.86.7-2.11.39-3.17.55c-1.06.16-2.01.3-2.87.42-1.84.27-3.45.7-4.83,1.29-1.38.59-2.44,1.38-3.21,2.38-.76.99-1.14,2.23-1.14,3.7,0,2.14.78,3.76,2.34,4.88,1.56,1.12,3.54,1.68,5.95,1.68h0Z"/>
    </g>
  </g>
</svg>