<?xml version="1.0" encoding="UTF-8" standalone="no"?>
<!-- Created with Inkscape (http://www.inkscape.org/) -->

<svg
   version="1.1"
   id="svg1"
   width="2503.1516"
   height="1551.9574"
   viewBox="0 0 2503.1516 1551.9574"
   xmlns="http://www.w3.org/2000/svg"
   xmlns:svg="http://www.w3.org/2000/svg">
  <defs
     id="defs1" />
  <g
     id="g1"
     transform="translate(-345.92847,-5)">
    <path
       style="fill:#000000"
       d="m 441.5,1555.5471 c -23.51462,-3.4878 -41.89384,-10.872 -57.19266,-22.9783 -17.8845,-14.1525 -29.41309,-33.0046 -35.51075,-58.0688 -2.17704,-8.9486 -2.19147,-9.6577 -2.52882,-124.25 L 345.92848,1235 h 31.50215 31.50216 l 0.30608,109.25 c 0.28136,100.4278 0.44702,109.7345 2.05151,115.25 5.70174,19.5999 18.23692,32.2493 36.82252,37.1581 8.43447,2.2276 25.26252,2.2485 33.61177,0.042 18.84766,-4.9819 31.23791,-17.444 36.98495,-37.1997 1.60449,-5.5155 1.77015,-14.8222 2.05151,-115.25 L 521.06721,1235 H 552.03361 583 l -0.003,108.25 c -0.002,72.4958 -0.36566,111.2226 -1.10137,117.25 -3.38293,27.7148 -14.29541,50.5456 -31.99094,66.9305 -14.9114,13.807 -34.20747,22.9329 -57.40487,27.1491 -12.00471,2.1819 -39.319,2.7 -51,0.9675 z m 330,-0.086 c -63.47089,-8.3394 -113.73328,-49.5888 -133.05253,-109.1937 -9.85422,-30.4028 -10.46469,-69.8847 -1.55858,-100.8004 16.94722,-58.8287 61.14886,-99.2788 123.11111,-112.6623 9.30498,-2.0098 13.28837,-2.2679 35,-2.2679 21.85003,0 25.6357,0.2486 35,2.2988 57.14056,12.5103 99.0052,49.1874 117.10139,102.591 2.05506,6.0646 3.52139,11.3746 3.25852,11.8 -0.26287,0.4253 -15.88787,0.7733 -34.72222,0.7733 h -34.24427 l -3.22614,-7.8905 c -10.10946,-24.7257 -29.76998,-41.7697 -56.69716,-49.1516 -12.24629,-3.3572 -33.69262,-3.8209 -47.27289,-1.0219 -32.73849,6.7474 -57.95496,28.3813 -70.18454,60.2133 -10.16559,26.4596 -9.94605,60.8838 0.55827,87.5374 6.84548,17.3697 21.16431,35.266 36.18748,45.2288 21.41915,14.2043 51.53425,19.1818 78.92144,13.0442 26.07759,-5.8441 49.60929,-26.0233 58.84301,-50.4597 l 2.2672,-6 34.60495,-0.263 c 31.48162,-0.2392 34.60496,-0.1152 34.60496,1.3734 0,0.9 -1.59839,6.413 -3.55198,12.2512 -11.95749,35.7345 -37.93993,66.1927 -72.44802,84.9282 -28.8186,15.6464 -67.35096,22.2896 -102.5,17.6714 z m 349.4924,-2e-4 c -86.2982,-11.8292 -145.2399,-82.114 -141.69273,-168.961 3.17644,-77.7705 53.54553,-137.208 130.20033,-153.6418 9.8262,-2.1066 13.561,-2.3582 35,-2.3582 21.4559,0 25.1661,0.2504 35,2.3623 70.9493,15.2365 120.3092,67.8873 129.0067,137.6078 8.2618,66.2272 -19.1367,126.8016 -72.7556,160.8528 -31.9259,20.2748 -75.7284,29.4881 -114.7587,24.1381 z M 1159,1497.5593 c 40.67,-5.4293 71.1728,-33.4539 81.7031,-75.0649 2.5763,-10.1805 2.7777,-12.4009 2.7207,-29.9944 -0.056,-17.1657 -0.3105,-19.9243 -2.6404,-28.5738 -8.6173,-31.9918 -27.1676,-55.1008 -54.0735,-67.3622 -12.1763,-5.5489 -22.3778,-7.7287 -38.7099,-8.2714 -11.9114,-0.3958 -16.196,-0.1293 -24,1.4924 -19.2298,3.9961 -34.8724,12.1191 -48.3329,25.0987 -22.211,21.4175 -33.2318,54.6855 -29.9357,90.3663 4.6973,50.8502 38.4639,87.0832 86.3226,92.6279 11.0407,1.2791 15.3601,1.228 26.946,-0.3186 z m 323.5323,57.8444 c -71.7843,-9.798 -124.1877,-58.326 -138.6577,-128.4037 -2.0885,-10.1142 -2.3746,-14.2113 -2.3742,-34 3e-4,-19.65 0.2925,-23.8933 2.3069,-33.5 13.8199,-65.9064 59.3673,-111.6681 125.6927,-126.2841 11.1298,-2.4526 13.7767,-2.647 36.5,-2.6801 21.778,-0.032 25.6666,0.2157 35,2.2282 46.5732,10.0421 82.7073,33.9727 106.4456,70.4961 9.1208,14.0331 18.2155,35.4874 20.1316,47.4899 l 0.6784,4.25 h -44.0338 -44.0338 l -1.5729,-4.6161 c -10.6057,-31.1261 -45.3413,-50.9411 -81.817,-46.6727 -40.7784,4.772 -68.5961,34.9223 -72.7593,78.8605 -1.8582,19.6122 1.55,39.656 9.5102,55.9283 10.6805,21.8335 28.09,35.9077 52.0801,42.1029 8.8938,2.2968 11.2567,2.5053 23.8709,2.1062 11.6977,-0.37 15.3978,-0.8909 22.5,-3.1671 20.9982,-6.73 34.4569,-18.4092 44.1262,-38.292 l 4.9847,-10.25 h 43.5581 43.5581 l -0.6957,4.6392 c -1.8976,12.6541 -12.3373,36.3057 -22.8911,51.8608 -7.6128,11.2203 -26.1831,29.9184 -37.9176,38.1784 -34.8538,24.534 -81.1099,35.6055 -124.1904,29.7253 z m 299.9677,0.048 c -34.4056,-5.0964 -60.8179,-22.0207 -73.005,-46.7797 -8.7188,-17.7132 -8.495,-15.1745 -8.495,-96.3447 v -71.3525 l 36.0319,0.2624 36.0319,0.2625 -0.032,58 c -0.02,35.784 0.3693,60.4897 1.0156,64.5 1.8505,11.4816 7.1873,19.0525 16.3344,23.1723 4.1789,1.8822 6.8619,2.3073 14.6183,2.3165 8.3958,0.01 10.1634,-0.3146 15.2079,-2.7918 6.2044,-3.0467 10.3448,-7.5971 13.3729,-14.697 1.8137,-4.2527 1.9349,-7.9761 2.2046,-67.75 l 0.2853,-63.25 H 1872.0354 1908 l -0.017,71.75 c -0.02,81.7433 0.155,79.6345 -7.9323,95.75 -12.93,25.7658 -38.2938,41.9847 -73.5503,47.0318 -12.2162,1.7488 -31.8959,1.7131 -44,-0.08 z m 541,0 c -37.1789,-5.5072 -64.555,-24.7309 -76.1703,-53.4873 -5.2244,-12.9344 -5.2937,-14.1111 -5.3123,-90.2272 l -0.017,-70.7624 36.25,0.2624 36.25,0.2625 0.5,63.5 0.5,63.5 3,5.9999 c 5.4227,10.8452 15.9736,16.182 30.1888,15.2697 12.745,-0.8179 22.9097,-7.9347 26.487,-18.5449 0.9409,-2.7907 1.3359,-19.5876 1.5754,-66.9871 l 0.3196,-63.2625 36.2146,0.2625 36.2146,0.2624 0.2673,66 c 0.153,37.7769 -0.1458,69.7388 -0.6987,74.7433 -1.1198,10.1344 -5.3864,23.3089 -10.2033,31.5056 -4.6656,7.9391 -18.8624,21.8983 -27.5794,27.1176 -7.7728,4.6541 -18.6968,9.2089 -27.9848,11.6685 -16.3578,4.3317 -41.8542,5.5754 -59.8011,2.917 z m 381.5,0.056 c -15.9159,-2.7312 -29.0172,-9.5428 -39.281,-20.423 -14.1831,-15.0348 -20.2453,-36.5027 -16.36,-57.9348 3.729,-20.5692 18.0694,-37.8653 37.4952,-45.2228 12.7408,-4.8257 21.9985,-6.0062 52.8244,-6.7363 27.4733,-0.6507 29.3436,-0.8136 32,-2.7866 5.8651,-4.3562 6.175,-12.8165 0.6796,-18.5525 -4.4293,-4.6232 -11.2058,-6.365 -24.3582,-6.2612 -16.6287,0.1313 -35.3639,4.7019 -55.7902,13.6105 -5.1096,2.2284 -9.422,3.8823 -9.5831,3.6752 -0.1611,-0.2071 -3.5031,-7.5765 -7.4267,-16.3765 -3.9236,-8.8 -9.3863,-20.9399 -12.1393,-26.9776 -2.753,-6.0377 -4.6804,-11.2973 -4.2831,-11.6878 2.0738,-2.0387 20.4352,-10.1992 30.8339,-13.7037 19.5712,-6.5958 34.8792,-9.2759 56.4361,-9.8805 21.1296,-0.5926 33.4404,0.5328 46.5684,4.2571 27.2952,7.7433 45.1813,23.555 53.1578,46.9925 l 2.7227,8 0.2918,78.25 0.2919,78.25 H 2813.0401 2777 v -8.5 c 0,-8.6188 -0.8682,-10.3393 -3.2415,-6.4237 -2.1908,3.6145 -12.3677,10.5744 -20.2763,13.8667 -13.7999,5.745 -31.7542,7.4355 -48.4822,4.565 z m 54.7763,-51.5241 c 9.2489,-4.0851 14.3901,-11.1137 16.1749,-22.1131 1.0613,-6.5411 1.4162,-16.8708 0.5796,-16.8708 -0.2581,0 -2.3956,1.0052 -4.75,2.2338 -3.7382,1.9506 -6.3089,2.3027 -20.2808,2.7777 -14.3576,0.4882 -16.4242,0.7842 -20.1321,2.8841 -9.9958,5.6609 -11.2584,19.2983 -2.545,27.4898 7.0428,6.6211 20.5539,8.1918 30.9534,3.5985 z M 2136,1553.3481 c -26.544,-4.0298 -40.2888,-15.6745 -44.5038,-37.7039 -1.2098,-6.3231 -1.4962,-17.8533 -1.4962,-60.2322 V 1403 h -15.5 -15.5 v -31 -31 h 15.4878 15.4879 l 0.2621,-37.25 0.2622,-37.25 h 36 36 l 0.2622,37.25 0.2621,37.25 H 2184.0122 2205 v 31 31 h -21 -21 v 39.3651 c 0,38.4058 0.051,39.4299 2.0883,42.02 4.4903,5.7086 10.9685,6.8696 31.4117,5.6297 l 8,-0.4852 v 30.9852 30.9852 l -16,1.1566 c -15.1352,1.0941 -47.0768,1.5148 -52.5,0.6915 z M 1954,1393.5126 V 1235 h 36.0031 36.0031 l -0.2531,158.25 -0.2531,158.25 -35.75,0.2626 -35.75,0.2627 z m 541,52.9744 v -105.5129 l 34.75,0.2629 34.75,0.263 0.5,15 0.5,15 2.5,-4.9376 c 3.7046,-7.3167 14.3291,-17.6214 22.0361,-21.3728 12.0616,-5.8711 25.7524,-7.7151 37.9147,-5.1067 l 5.0492,1.0828 v 37.8055 37.8054 l -21.25,0.472 c -23.7431,0.5273 -27.565,1.3333 -34.5104,7.2783 -2.1965,1.8801 -5.0615,5.5682 -6.3666,8.1958 l -2.373,4.7773 -0.2897,56.4655 c -0.2198,42.8286 -0.582,56.6513 -1.5,57.2347 -0.6657,0.4231 -17.0728,0.7761 -36.4603,0.7845 L 2495,1552 Z m 123.6667,-344.1537 C 2618.3,1101.9667 2618,1087.2264 2618,1069.5772 c 0,-33.5695 -1.0152,-47.4683 -5.0457,-69.0772 C 2591.2557,884.16601 2505.579,788.4859 2392.6272,754.44811 2329.2747,735.35698 2261.1485,736.5416 2199,757.81499 c -50.5961,17.319 -97.14,47.89811 -132.7027,87.18501 -5.2276,5.775 -16.6099,19.95 -25.294,31.5 -54.2507,72.15433 -115.7097,124.8055 -191.5033,164.0585 -131.681,68.1969 -285.462,80.0702 -426.091,32.8984 C 1277.0998,1024.3797 1158.238,916.19409 1096.0484,775.5 1070.3248,717.30432 1055.3636,657.16025 1050.8993,594 c -0.6804,-9.625 -1.3072,-17.60871 -1.393,-17.74157 -0.086,-0.13286 -8.8974,1.97088 -19.5812,4.67498 C 995.19279,589.72424 963.25055,594.60789 925,596.9754 842.90736,602.05653 756.48841,587.08089 680,554.51906 589.41817,515.95753 511.70014,454.65108 453.05802,375.5 402.1844,306.8343 368.0844,226.91279 353.57653,142.34135 348.19994,110.99935 346.04597,81.611228 346.02055,39.25 L 346,5 H 461.5 577 v 30.870708 c 0,20.746114 0.50653,35.750634 1.54445,45.75 7.79233,75.071752 41.38584,143.672742 96.18505,196.418572 124.40999,119.74823 320.6729,118.17941 442.7727,-3.53928 12.4282,-12.3894 22.2654,-24.06289 34.8628,-41.37039 C 1232.598,122.89763 1346.1422,47.942725 1478,18.165387 c 21.314,-4.813328 46.2147,-8.6491939 73.5,-11.3224345 17.0142,-1.6669412 74.9189,-1.6713163 92,-0.00695 85.2915,8.3107125 157.8704,31.0800915 228.5796,71.7097515 81.99,47.111636 153.3102,118.428096 200.3679,200.357376 8.5037,14.80541 33.9174,65.06528 33.2417,65.74105 -0.2349,0.23482 -10.2735,3.53412 -22.3081,7.33177 -62.2804,19.65325 -114.9924,43.60156 -171.3561,77.85111 l -16.4751,10.0111 -11.0909,-21.66908 c -16.0798,-31.4164 -26.2658,-47.28544 -43.8258,-68.27741 C 1788.6501,287.74904 1719.3486,249.97343 1636,238.34805 c -15.6846,-2.18766 -58.662,-2.49621 -73,-0.52408 -56.0151,7.70461 -98.4305,23.18254 -140.6606,51.3288 -58.1387,38.74933 -102.7616,97.01022 -125.493,163.84723 -13.0264,38.30141 -18.9531,83.96386 -15.8469,122.09336 6.3852,78.38012 38.2915,148.1953 92.5017,202.40545 54.8015,54.80153 125.8524,87.04504 203.9988,92.57647 61.7222,4.36889 127.3343,-11.68314 182.4477,-44.63596 37.2852,-22.29311 65.6319,-48.20069 95.1246,-86.93932 38.3703,-50.39951 71.6124,-84.73179 111.9277,-115.59861 69.87,-53.49486 149.2251,-88.60046 235.8826,-104.35112 64.0336,-11.63859 133.7566,-11.50235 198.7582,0.38836 81.7206,14.94909 162.1782,50.3455 229.1096,100.79417 39.3784,29.68088 79.2638,69.59108 108.6998,108.7672 55.6903,74.11782 91.9313,161.70779 104.5682,252.72882 3.6866,26.55318 4.9541,48.49948 4.9682,86.02118 L 2849,1103 h -114.8333 c -63.1584,0 -115.1334,-0.3 -115.5,-0.6667 z"
       id="path1" />
  </g>
</svg>
