<?xml version="1.0" encoding="UTF-8" standalone="no"?>
<!-- Created with Inkscape (http://www.inkscape.org/) -->

<svg
   width="19.198202mm"
   height="26.446762mm"
   viewBox="0 0 19.198202 26.446762"
   version="1.1"
   id="svg2502"
   inkscape:version="1.1.2 (0a00cf5339, 2022-02-04)"
   sodipodi:docname="logoUCO_letras-debajo-2lineas.svg"
   xmlns:inkscape="http://www.inkscape.org/namespaces/inkscape"
   xmlns:sodipodi="http://sodipodi.sourceforge.net/DTD/sodipodi-0.dtd"
   xmlns="http://www.w3.org/2000/svg"
   xmlns:svg="http://www.w3.org/2000/svg">
  <sodipodi:namedview
     id="namedview2504"
     pagecolor="#ffffff"
     bordercolor="#666666"
     borderopacity="1.0"
     inkscape:pageshadow="2"
     inkscape:pageopacity="0.0"
     inkscape:pagecheckerboard="0"
     inkscape:document-units="mm"
     showgrid="false"
     fit-margin-top="0"
     fit-margin-left="0"
     fit-margin-right="0"
     fit-margin-bottom="0"
     inkscape:zoom="1.8116734"
     inkscape:cx="56.301537"
     inkscape:cy="60.993332"
     inkscape:window-width="1920"
     inkscape:window-height="1136"
     inkscape:window-x="0"
     inkscape:window-y="0"
     inkscape:window-maximized="1"
     inkscape:current-layer="layer1" />
  <defs
     id="defs2499">
    <clipPath
       clipPathUnits="userSpaceOnUse"
       id="clipPath172">
      <path
         d="M 0,0 H 1190.551 V 737.008 H 0 Z"
         id="path170" />
    </clipPath>
    <clipPath
       clipPathUnits="userSpaceOnUse"
       id="clipPath268">
      <path
         d="m 104.136,526.48 h 54.42 v 74.967 h -54.42 z"
         id="path266" />
    </clipPath>
    <clipPath
       clipPathUnits="userSpaceOnUse"
       id="clipPath292">
      <path
         d="M 0,0 H 1190.551 V 737.008 H 0 Z"
         id="path290" />
    </clipPath>
    <clipPath
       clipPathUnits="userSpaceOnUse"
       id="clipPath304">
      <path
         d="m 104.136,526.48 h 54.42 v 74.967 h -54.42 z"
         id="path302" />
    </clipPath>
    <clipPath
       clipPathUnits="userSpaceOnUse"
       id="clipPath320">
      <path
         d="M 0,0 H 1190.551 V 737.008 H 0 Z"
         id="path318" />
    </clipPath>
  </defs>
  <g
     inkscape:label="Layer 1"
     inkscape:groupmode="layer"
     id="layer1"
     transform="translate(-95.321623,-135.27662)">
    <g
       id="g2972">
      <g
         id="g166"
         transform="matrix(0.35277777,0,0,-0.35277777,58.584792,347.45389)">
        <g
           id="g168"
           clip-path="url(#clipPath172)">
          <g
             id="g174"
             transform="translate(145.0666,590.3248)">
            <path
               d="m 0,0 c -0.904,1.124 -1.943,2.136 -3.094,3.009 l -10.62,-26.602 z"
               style="fill:#a91835;fill-opacity:1;fill-rule:nonzero;stroke:none"
               id="path176" />
          </g>
          <g
             id="g178"
             transform="translate(138.1867,595.5236)">
            <path
               d="M 0,0 C -1.338,0.564 -2.761,0.965 -4.243,1.184 L -6.834,-28.791 Z"
               style="fill:#a91835;fill-opacity:1;fill-rule:nonzero;stroke:none"
               id="path180" />
          </g>
          <g
             id="g182"
             transform="translate(148.5812,582.8209)">
            <path
               d="m 0,0 c -0.274,1.368 -0.709,2.678 -1.282,3.911 l -15.946,-20 z"
               style="fill:#a91835;fill-opacity:1;fill-rule:nonzero;stroke:none"
               id="path184" />
          </g>
          <g
             id="g186"
             transform="translate(148.4035,575.151)">
            <path
               d="M 0,0 C 0.297,1.196 0.469,2.439 0.506,3.718 L -17.05,-8.419 Z"
               style="fill:#a91835;fill-opacity:1;fill-rule:nonzero;stroke:none"
               id="path188" />
          </g>
          <g
             id="g190"
             transform="translate(115.7282,587.3873)">
            <path
               d="M 0,0 C -0.628,-1.217 -1.118,-2.515 -1.449,-3.877 L 15.625,-20.655 Z"
               style="fill:#a91835;fill-opacity:1;fill-rule:nonzero;stroke:none"
               id="path192" />
          </g>
          <g
             id="g194"
             transform="translate(113.7882,579.5475)">
            <path
               d="m 0,0 -0.004,-0.167 c 0,-1.237 0.13,-2.443 0.375,-3.608 l 17.194,-9.04 z"
               style="fill:#a91835;fill-opacity:1;fill-rule:nonzero;stroke:none"
               id="path196" />
          </g>
          <g
             id="g198"
             transform="translate(121.3483,593.7775)">
            <path
               d="M 0,0 C -1.192,-0.825 -2.276,-1.794 -3.229,-2.881 L 10.005,-27.046 Z"
               style="fill:#a91835;fill-opacity:1;fill-rule:nonzero;stroke:none"
               id="path200" />
          </g>
          <g
             id="g202"
             transform="translate(129.5265,596.8038)">
            <path
               d="m 0,0 c -1.495,-0.154 -2.935,-0.496 -4.294,-1 l 6.12,-29.071 z"
               style="fill:#a91835;fill-opacity:1;fill-rule:nonzero;stroke:none"
               id="path204" />
          </g>
          <g
             id="g206"
             transform="translate(131.3463,563.0719)">
            <path
               d="m 0,0 c -4.14,0 -7.508,3.359 -7.508,7.486 0,4.129 3.368,7.487 7.508,7.487 4.14,0 7.508,-3.358 7.508,-7.487 C 7.508,3.359 4.14,0 0,0"
               style="fill:#21234d;fill-opacity:1;fill-rule:nonzero;stroke:none"
               id="path208" />
          </g>
          <g
             id="g210"
             transform="translate(131.3463,576.7872)">
            <path
               d="m 0,0 c 3.451,0 6.247,-2.788 6.247,-6.229 0,-3.44 -2.796,-6.229 -6.247,-6.229 -3.451,0 -6.247,2.789 -6.247,6.229 C -6.247,-2.788 -3.451,0 0,0 m 0,2.515 c -4.835,0 -8.77,-3.923 -8.77,-8.744 0,-4.821 3.935,-8.743 8.77,-8.743 4.836,0 8.77,3.922 8.77,8.743 0,4.821 -3.934,8.744 -8.77,8.744"
               style="fill:#f3b714;fill-opacity:1;fill-rule:nonzero;stroke:none"
               id="path212" />
          </g>
          <g
             id="g214"
             transform="translate(131.3444,601.4474)">
            <path
               d="M 0,0 -17.759,-9.36 V -37.963 L 0,-47.323 l 17.762,9.36 V -9.36 Z m 16.067,-24.293 c 0,-0.992 -0.2,-1.899 -0.446,-2.024 -0.246,-0.127 -0.445,-0.229 -0.445,-0.229 L 2.581,-33.183 c -1.028,-0.541 -1.93,-1.451 -2.579,-2.515 -0.649,1.064 -1.551,1.974 -2.579,2.515 l -12.595,6.637 -0.444,0.223 c -0.244,0.123 -0.444,1.027 -0.445,2.019 -0.001,0.771 -0.002,1.648 -0.002,2.324 0,8.847 7.193,16.018 16.065,16.018 8.872,0 16.065,-7.171 16.065,-16.018 z"
               style="fill:#21234d;fill-opacity:1;fill-rule:nonzero;stroke:none"
               id="path216" />
          </g>
          <g
             id="g218"
             transform="translate(137.5939,570.5582)">
            <path
               d="m 0,0 c 0,-3.44 -2.797,-6.229 -6.247,-6.229 -3.451,0 -6.248,2.789 -6.248,6.229 0,3.44 2.797,6.229 6.248,6.229 C -2.797,6.229 0,3.44 0,0"
               style="fill:#21234d;fill-opacity:1;fill-rule:nonzero;stroke:none"
               id="path220" />
          </g>
          <g
             id="g222"
             transform="translate(127.8761,566.5837)">
            <path
               d="M 0,0 -12.595,6.637 V -2.08 L 2.623,-10.1 v 5.76 C 2.623,-2.706 1.449,-0.763 0,0 M 6.941,0 C 5.492,-0.763 4.318,-2.706 4.318,-4.34 v -5.76 l 15.218,8.02 v 8.717 z"
               style="fill:#ffffff;fill-opacity:1;fill-rule:nonzero;stroke:none"
               id="path224" />
          </g>
          <g
             id="g226"
             transform="translate(104.1359,544.9913)">
            <path
               d="M 0,0 V 0.452 L 1.155,0.419 1.635,0.43 2.114,0.447 2.246,0.452 V 0 C 1.99,0 1.828,-0.034 1.759,-0.103 1.723,-0.136 1.7,-0.2 1.688,-0.294 1.655,-0.52 1.638,-1.015 1.638,-1.782 v -1.265 l 0.004,-0.637 c 0,-0.666 0.005,-1.076 0.014,-1.232 0.021,-0.342 0.077,-0.617 0.167,-0.826 0.09,-0.209 0.228,-0.378 0.414,-0.507 0.186,-0.129 0.422,-0.193 0.709,-0.193 0.329,0 0.592,0.086 0.787,0.258 0.195,0.173 0.334,0.398 0.417,0.674 0.083,0.276 0.125,0.801 0.125,1.575 v 1.112 c 0,0.959 -0.001,1.544 -0.004,1.755 -0.007,0.458 -0.023,0.734 -0.05,0.828 L 4.14,-0.109 C 4.062,-0.047 3.891,-0.01 3.628,0 V 0.452 C 4.057,0.427 4.311,0.414 4.392,0.414 L 4.488,0.419 5.277,0.452 V 0 C 5.056,0 4.918,-0.027 4.861,-0.081 L 4.792,-0.248 C 4.774,-0.33 4.757,-0.697 4.74,-1.352 4.724,-2.006 4.715,-2.522 4.715,-2.9 V -4.181 C 4.715,-4.508 4.7,-4.846 4.669,-5.194 4.638,-5.543 4.576,-5.841 4.483,-6.089 4.389,-6.336 4.257,-6.559 4.087,-6.759 3.916,-6.959 3.714,-7.11 3.479,-7.211 3.244,-7.313 2.973,-7.364 2.665,-7.364 c -0.36,0 -0.697,0.075 -1.009,0.224 -0.227,0.109 -0.414,0.255 -0.558,0.439 -0.144,0.183 -0.254,0.388 -0.33,0.615 -0.076,0.227 -0.122,0.447 -0.139,0.657 -0.012,0.131 -0.018,0.484 -0.018,1.058 l 0.004,1.046 v 1.385 c 0,0.508 -0.007,0.966 -0.021,1.373 -0.008,0.161 -0.022,0.276 -0.043,0.349 l -0.089,0.142 z"
               style="fill:#21234d;fill-opacity:1;fill-rule:nonzero;stroke:none"
               id="path228" />
          </g>
          <g
             id="g230"
             transform="translate(109.882,538.2819)">
            <path
               d="m 0,0 c 0.279,0.022 0.44,0.042 0.48,0.06 l 0.065,0.071 c 0.018,0.033 0.033,0.1 0.045,0.201 0.014,0.139 0.031,0.473 0.05,1.003 0.009,0.302 0.014,0.695 0.014,1.178 v 1.75 L 0.64,5.848 C 0.637,6.114 0.63,6.286 0.618,6.366 L 0.567,6.544 0.455,6.634 C 0.403,6.655 0.251,6.679 0,6.704 V 7.162 C 0.301,7.14 0.522,7.129 0.664,7.129 L 1.18,7.146 1.506,7.162 C 1.995,6.185 2.585,5.058 3.28,3.782 3.78,2.863 4.194,2.144 4.524,1.624 V 2.883 C 4.524,4.838 4.509,5.989 4.481,6.334 4.471,6.468 4.45,6.555 4.417,6.595 4.363,6.661 4.177,6.697 3.863,6.704 V 7.162 C 4.152,7.14 4.417,7.129 4.659,7.129 c 0.234,0 0.536,0.011 0.906,0.033 V 6.704 C 5.275,6.693 5.104,6.661 5.049,6.606 L 5.011,6.524 C 4.975,6.343 4.952,5.928 4.941,5.279 4.93,4.63 4.925,4.152 4.925,3.843 4.925,1.427 4.94,-0.04 4.971,-0.556 L 4.925,-0.605 C 4.726,-0.554 4.524,-0.507 4.318,-0.463 3.552,0.848 2.467,2.818 1.062,5.445 V 2.731 C 1.062,2.167 1.07,1.581 1.084,0.97 1.093,0.549 1.108,0.293 1.126,0.202 L 1.175,0.096 1.293,0.038 C 1.447,0.009 1.56,-0.005 1.631,-0.005 L 1.702,0 V -0.441 C 1.252,-0.434 0.996,-0.43 0.935,-0.43 0.704,-0.43 0.393,-0.441 0,-0.463 Z"
               style="fill:#21234d;fill-opacity:1;fill-rule:nonzero;stroke:none"
               id="path232" />
          </g>
          <g
             id="g234"
             transform="translate(118.2643,545.444)">
            <path
               d="m 0,0 v -0.48 c -0.239,-0.011 -0.382,-0.024 -0.427,-0.04 l -0.095,-0.061 -0.039,-0.09 C -0.578,-0.732 -0.59,-0.85 -0.597,-1.025 -0.602,-1.12 -0.605,-1.297 -0.608,-1.559 -0.617,-2.453 -0.622,-2.935 -0.622,-3.003 V -5.2 l 0.011,-0.998 c 0,-0.374 0.012,-0.617 0.035,-0.73 l 0.049,-0.117 0.106,-0.066 C -0.373,-7.127 -0.232,-7.139 0,-7.146 v -0.48 c -0.386,0.022 -0.798,0.033 -1.237,0.033 -0.381,0 -0.721,-0.011 -1.019,-0.033 v 0.48 c 0.246,0.014 0.388,0.027 0.426,0.038 l 0.101,0.06 0.034,0.087 c 0.007,0.044 0.016,0.215 0.028,0.513 0.019,0.436 0.029,0.839 0.029,1.21 v 2.278 c 0,0.723 -0.003,1.188 -0.007,1.396 -0.012,0.461 -0.026,0.75 -0.043,0.866 l -0.034,0.109 -0.085,0.063 c -0.041,0.016 -0.192,0.031 -0.449,0.046 V 0 c 0.298,-0.022 0.64,-0.033 1.026,-0.033 0.434,0 0.844,0.011 1.23,0.033"
               style="fill:#21234d;fill-opacity:1;fill-rule:nonzero;stroke:none"
               id="path236" />
          </g>
          <g
             id="g238"
             transform="translate(121.1354,537.7804)">
            <path
               d="m 0,0 c -0.201,0.763 -0.395,1.488 -0.579,2.175 l -0.505,1.848 c -0.396,1.45 -0.639,2.313 -0.73,2.592 -0.091,0.277 -0.161,0.436 -0.208,0.476 -0.071,0.058 -0.218,0.091 -0.44,0.098 v 0.475 c 0.568,-0.026 0.914,-0.038 1.037,-0.038 l 1.276,0.038 V 7.189 C -0.348,7.186 -0.493,7.167 -0.582,7.135 L -0.691,7.056 -0.721,6.923 c 0,-0.109 0.078,-0.455 0.234,-1.036 0.09,-0.335 0.138,-0.515 0.144,-0.543 L -0.32,5.243 0.579,1.88 1.368,4.879 C 1.387,4.947 1.471,5.291 1.62,5.909 1.727,6.345 1.792,6.637 1.816,6.786 L 1.823,6.917 1.803,7.056 1.752,7.124 1.624,7.151 C 1.47,7.173 1.34,7.186 1.233,7.189 V 7.664 L 2.136,7.631 2.903,7.664 V 7.189 C 2.673,7.156 2.539,7.119 2.502,7.075 2.438,6.999 2.304,6.586 2.1,5.838 L 1.848,4.933 1.368,3.177 C 0.961,1.681 0.685,0.621 0.54,0 Z"
               style="fill:#21234d;fill-opacity:1;fill-rule:nonzero;stroke:none"
               id="path240" />
          </g>
          <g
             id="g242"
             transform="translate(124.5929,537.8185)">
            <path
               d="M 0,0 V 0.294 C 0.142,0.396 0.258,0.502 0.348,0.61 0.362,0.763 0.374,1.01 0.384,1.352 0.403,1.977 0.412,2.431 0.412,2.715 V 5.167 C 0.412,5.262 0.409,5.616 0.402,6.23 0.395,6.641 0.378,6.891 0.352,6.982 L 0.298,7.064 C 0.235,7.108 0.064,7.14 -0.213,7.162 V 7.626 L 0.611,7.598 C 0.775,7.594 0.931,7.593 1.08,7.593 c 0.325,0 0.686,0.005 1.084,0.016 l 0.721,0.028 c 0.086,0 0.258,-0.008 0.519,-0.022 L 3.521,7.582 3.546,7.511 3.479,6.726 C 3.476,6.672 3.464,6.41 3.443,5.941 H 3.166 C 3.161,6.37 3.151,6.634 3.134,6.732 L 3.092,6.84 C 3.061,6.873 2.966,6.902 2.807,6.928 2.572,6.968 2.343,6.988 2.118,6.988 1.907,6.988 1.692,6.975 1.471,6.95 1.438,6.539 1.421,6.018 1.421,5.386 V 4.268 C 1.582,4.25 1.751,4.241 1.926,4.241 c 0.054,0 0.251,0.007 0.59,0.022 0.128,0.003 0.203,0.016 0.225,0.037 l 0.052,0.115 c 0.029,0.138 0.045,0.369 0.05,0.692 H 3.131 L 3.116,3.908 3.131,2.715 H 2.825 C 2.827,3.136 2.81,3.396 2.772,3.494 L 2.619,3.63 C 2.455,3.67 2.246,3.69 1.99,3.69 1.76,3.69 1.571,3.679 1.421,3.657 V 1.346 C 1.421,1.088 1.425,0.867 1.432,0.681 1.624,0.66 1.851,0.648 2.114,0.648 c 0.256,0 0.492,0.013 0.709,0.039 0.217,0.025 0.35,0.061 0.4,0.109 L 3.269,0.894 C 3.312,1.068 3.357,1.399 3.404,1.886 H 3.695 C 3.643,1.166 3.617,0.574 3.617,0.109 L 3.571,0.038 C 3.42,0.012 3.204,0 2.924,0 L 2.352,0.016 C 1.789,0.027 1.4,0.033 1.187,0.033 1.13,0.033 0.735,0.022 0,0"
               style="fill:#21234d;fill-opacity:1;fill-rule:nonzero;stroke:none"
               id="path244" />
          </g>
          <g
             id="g246"
             transform="translate(128.8927,544.9913)">
            <path
               d="m 0,0 v 0.447 c 0.055,0 0.244,-0.007 0.569,-0.022 0.158,-0.007 0.383,-0.011 0.675,-0.011 0.249,0 0.461,0.008 0.639,0.022 0.294,0.018 0.537,0.028 0.729,0.028 0.372,0 0.65,-0.041 0.835,-0.123 C 3.632,0.259 3.789,0.089 3.919,-0.169 4.05,-0.427 4.115,-0.741 4.115,-1.112 4.115,-1.551 4.026,-1.951 3.848,-2.311 3.671,-2.671 3.397,-2.956 3.028,-3.166 3.087,-3.33 3.154,-3.497 3.23,-3.668 3.306,-3.839 3.35,-3.943 3.363,-3.979 l 0.041,-0.103 0.551,-1.27 C 4.102,-5.691 4.181,-5.872 4.193,-5.897 4.371,-6.261 4.48,-6.475 4.52,-6.54 l 0.117,-0.137 c 0.038,-0.026 0.113,-0.04 0.224,-0.044 v -0.452 c -0.365,0.015 -0.629,0.022 -0.792,0.022 -0.19,0 -0.378,-0.007 -0.565,-0.022 -0.012,0.08 -0.041,0.183 -0.086,0.311 l -0.76,1.924 c -0.218,0.552 -0.403,0.986 -0.555,1.302 -0.075,0.161 -0.149,0.28 -0.22,0.36 l 0.04,0.18 c 0.284,-0.015 0.498,0.03 0.643,0.134 0.144,0.103 0.266,0.289 0.366,0.556 0.099,0.267 0.149,0.566 0.149,0.896 0,0.334 -0.052,0.612 -0.157,0.834 C 2.82,-0.453 2.691,-0.3 2.537,-0.213 2.438,-0.158 2.26,-0.131 2.004,-0.131 1.89,-0.131 1.778,-0.145 1.667,-0.175 1.659,-0.305 1.652,-0.599 1.645,-1.057 1.631,-2.086 1.624,-2.772 1.624,-3.118 c 0,-0.545 0.003,-1.123 0.011,-1.733 0.009,-0.748 0.016,-1.174 0.021,-1.275 0.007,-0.204 0.02,-0.336 0.039,-0.398 l 0.046,-0.08 0.103,-0.057 c 0.047,-0.014 0.185,-0.025 0.412,-0.032 v -0.48 C 1.851,-7.151 1.441,-7.14 1.027,-7.14 0.657,-7.14 0.315,-7.151 0,-7.173 v 0.48 c 0.27,0.014 0.43,0.034 0.48,0.059 l 0.062,0.056 0.03,0.152 c 0.017,0.141 0.029,0.356 0.035,0.643 l 0.029,1.591 v 2.023 l -0.014,1.15 C 0.617,-0.565 0.603,-0.293 0.579,-0.202 L 0.526,-0.109 C 0.469,-0.065 0.294,-0.029 0,0"
               style="fill:#21234d;fill-opacity:1;fill-rule:nonzero;stroke:none"
               id="path248" />
          </g>
          <g
             id="g250"
             transform="translate(137.5207,543.4493)">
            <path
               d="m 0,0 h -0.298 c -0.005,0.421 -0.017,0.719 -0.036,0.894 -0.073,0.16 -0.201,0.302 -0.382,0.425 -0.181,0.123 -0.384,0.186 -0.61,0.186 -0.322,0 -0.571,-0.125 -0.748,-0.374 -0.176,-0.249 -0.264,-0.54 -0.264,-0.875 0.002,-0.24 0.028,-0.434 0.078,-0.583 0.05,-0.149 0.121,-0.267 0.213,-0.355 0.092,-0.087 0.229,-0.167 0.409,-0.239 0.137,-0.044 0.329,-0.098 0.574,-0.164 0.245,-0.065 0.404,-0.111 0.478,-0.136 0.191,-0.076 0.347,-0.168 0.465,-0.275 0.119,-0.108 0.213,-0.231 0.283,-0.371 0.069,-0.14 0.127,-0.316 0.172,-0.529 0.045,-0.212 0.067,-0.451 0.067,-0.716 0,-0.466 -0.062,-0.875 -0.188,-1.227 -0.094,-0.265 -0.226,-0.508 -0.394,-0.727 -0.169,-0.22 -0.341,-0.385 -0.519,-0.494 -0.284,-0.174 -0.626,-0.262 -1.024,-0.262 -0.291,0 -0.551,0.042 -0.778,0.126 -0.227,0.084 -0.477,0.227 -0.75,0.431 0.074,0.414 0.112,1.044 0.114,1.891 h 0.299 c -0.005,-0.262 0.008,-0.587 0.039,-0.976 0.09,-0.225 0.244,-0.423 0.462,-0.594 0.218,-0.171 0.456,-0.256 0.714,-0.256 0.224,0 0.426,0.061 0.602,0.182 0.177,0.122 0.305,0.291 0.384,0.505 0.079,0.214 0.119,0.457 0.119,0.73 0,0.229 -0.028,0.425 -0.084,0.589 -0.055,0.163 -0.142,0.294 -0.261,0.392 -0.118,0.098 -0.326,0.2 -0.625,0.306 -0.429,0.137 -0.71,0.238 -0.846,0.299 -0.204,0.095 -0.368,0.231 -0.492,0.409 -0.124,0.178 -0.217,0.393 -0.279,0.646 -0.061,0.253 -0.092,0.524 -0.092,0.815 0,0.407 0.055,0.782 0.167,1.125 0.11,0.344 0.258,0.61 0.44,0.799 0.183,0.189 0.389,0.325 0.619,0.406 0.23,0.082 0.466,0.123 0.707,0.123 0.251,0 0.495,-0.035 0.73,-0.104 0.236,-0.069 0.44,-0.169 0.613,-0.299 L 0.107,1.592 C 0.073,1.355 0.049,1.123 0.034,0.897 0.018,0.67 0.007,0.371 0,0"
               style="fill:#21234d;fill-opacity:1;fill-rule:nonzero;stroke:none"
               id="path252" />
          </g>
          <g
             id="g254"
             transform="translate(140.9035,545.444)">
            <path
               d="m 0,0 v -0.48 c -0.239,-0.011 -0.382,-0.024 -0.427,-0.04 l -0.095,-0.061 -0.039,-0.09 C -0.578,-0.732 -0.59,-0.85 -0.597,-1.025 -0.602,-1.12 -0.605,-1.297 -0.608,-1.559 -0.617,-2.453 -0.622,-2.935 -0.622,-3.003 V -5.2 l 0.011,-0.998 c 0,-0.374 0.012,-0.617 0.035,-0.73 l 0.049,-0.117 0.106,-0.066 C -0.373,-7.127 -0.232,-7.139 0,-7.146 v -0.48 c -0.386,0.022 -0.798,0.033 -1.237,0.033 -0.381,0 -0.721,-0.011 -1.019,-0.033 v 0.48 c 0.246,0.014 0.388,0.027 0.426,0.038 l 0.101,0.06 0.034,0.087 c 0.007,0.044 0.016,0.215 0.028,0.513 0.019,0.436 0.029,0.839 0.029,1.21 v 2.278 c 0,0.723 -0.003,1.188 -0.007,1.396 -0.012,0.461 -0.026,0.75 -0.043,0.866 l -0.034,0.109 -0.085,0.063 c -0.041,0.016 -0.192,0.031 -0.449,0.046 V 0 c 0.298,-0.022 0.64,-0.033 1.026,-0.033 0.434,0 0.844,0.011 1.23,0.033"
               style="fill:#21234d;fill-opacity:1;fill-rule:nonzero;stroke:none"
               id="path256" />
          </g>
          <g
             id="g258"
             transform="translate(141.6002,537.8185)">
            <path
               d="m 0,0 v 0.262 l 0.099,0.087 0.249,0.24 C 0.374,1.076 0.387,1.866 0.387,2.96 v 0.894 c 0,0.48 -0.006,1.183 -0.018,2.109 C 0.362,6.476 0.346,6.802 0.323,6.944 L 0.294,7.021 0.206,7.086 C 0.166,7.1 0.016,7.133 -0.242,7.184 V 7.626 L 1.048,7.593 C 1.2,7.593 1.485,7.602 1.904,7.62 2.208,7.631 2.45,7.637 2.633,7.637 3.052,7.637 3.388,7.597 3.64,7.519 3.893,7.441 4.112,7.316 4.3,7.143 4.487,6.971 4.644,6.766 4.773,6.53 4.903,6.294 5.001,6.039 5.067,5.767 5.178,5.309 5.234,4.808 5.234,4.263 5.234,3.568 5.151,2.949 4.985,2.404 4.819,1.859 4.591,1.403 4.301,1.036 4.011,0.668 3.696,0.404 3.357,0.243 3.019,0.081 2.61,0 2.132,0 L 1.076,0.033 Z m 1.421,0.665 c 0.22,-0.051 0.431,-0.076 0.633,-0.076 0.314,0 0.594,0.051 0.838,0.153 0.18,0.076 0.338,0.187 0.473,0.332 0.135,0.145 0.265,0.36 0.389,0.643 0.124,0.284 0.221,0.622 0.29,1.014 0.068,0.392 0.102,0.816 0.102,1.27 0,0.414 -0.034,0.815 -0.102,1.202 C 3.975,5.59 3.862,5.929 3.706,6.219 3.55,6.51 3.352,6.721 3.113,6.852 2.873,6.983 2.511,7.048 2.025,7.048 1.843,7.048 1.641,7.024 1.421,6.977 1.397,6.461 1.386,5.489 1.386,4.061 V 2.807 c 0,-1.083 0.011,-1.797 0.035,-2.142"
               style="fill:#21234d;fill-opacity:1;fill-rule:nonzero;stroke:none"
               id="path260" />
          </g>
        </g>
      </g>
      <g
         id="g262"
         transform="matrix(0.35277777,0,0,-0.35277777,58.584792,347.45389)">
        <g
           id="g264"
           clip-path="url(#clipPath268)">
          <g
             id="g270"
             transform="translate(147.3703,537.8185)">
            <path
               d="M 0,0 V 0.453 C 0.192,0.475 0.307,0.493 0.343,0.51 L 0.438,0.586 0.517,0.75 c 0.028,0.074 0.109,0.351 0.244,0.831 0.062,0.225 0.18,0.67 0.355,1.335 l 0.928,3.51 0.312,1.238 H 2.861 L 4.45,1.973 4.67,1.226 4.812,0.725 4.879,0.583 4.952,0.518 C 4.979,0.503 5.049,0.491 5.16,0.48 L 5.316,0.453 V 0 L 4.329,0.033 3.081,0 v 0.453 c 0.287,0.018 0.448,0.042 0.485,0.073 l 0.055,0.155 c 0,0.092 -0.027,0.24 -0.081,0.447 l -0.306,1.2 H 1.408 L 1.251,1.674 C 1.133,1.172 1.074,0.86 1.074,0.736 L 1.131,0.551 C 1.187,0.5 1.357,0.467 1.638,0.453 V 0 L 0.818,0.033 Z M 1.571,2.949 C 1.794,2.938 2.046,2.933 2.328,2.933 2.6,2.933 2.845,2.938 3.06,2.949 L 2.3,5.762 Z"
               style="fill:#21234d;fill-opacity:1;fill-rule:nonzero;stroke:none"
               id="path272" />
          </g>
          <g
             id="g274"
             transform="translate(153.3229,537.8185)">
            <path
               d="m 0,0 v 0.262 l 0.099,0.087 0.249,0.24 C 0.374,1.076 0.387,1.866 0.387,2.96 v 0.894 c 0,0.48 -0.006,1.183 -0.018,2.109 C 0.362,6.476 0.346,6.802 0.323,6.944 L 0.294,7.021 0.206,7.086 C 0.166,7.1 0.016,7.133 -0.242,7.184 V 7.626 L 1.048,7.593 C 1.2,7.593 1.485,7.602 1.904,7.62 2.208,7.631 2.45,7.637 2.633,7.637 3.052,7.637 3.388,7.597 3.64,7.519 3.893,7.441 4.112,7.316 4.3,7.143 4.487,6.971 4.644,6.766 4.773,6.53 4.903,6.294 5.001,6.039 5.067,5.767 5.178,5.309 5.234,4.808 5.234,4.263 5.234,3.568 5.151,2.949 4.985,2.404 4.819,1.859 4.591,1.403 4.301,1.036 4.011,0.668 3.696,0.404 3.357,0.243 3.019,0.081 2.61,0 2.132,0 L 1.076,0.033 Z m 1.421,0.665 c 0.22,-0.051 0.431,-0.076 0.633,-0.076 0.314,0 0.594,0.051 0.838,0.153 0.18,0.076 0.338,0.187 0.473,0.332 0.135,0.145 0.265,0.36 0.389,0.643 0.124,0.284 0.221,0.622 0.29,1.014 0.068,0.392 0.102,0.816 0.102,1.27 0,0.414 -0.034,0.815 -0.102,1.202 C 3.975,5.59 3.862,5.929 3.706,6.219 3.55,6.51 3.352,6.721 3.113,6.852 2.873,6.983 2.511,7.048 2.025,7.048 1.843,7.048 1.641,7.024 1.421,6.977 1.397,6.461 1.386,5.489 1.386,4.061 V 2.807 c 0,-1.083 0.011,-1.797 0.035,-2.142"
               style="fill:#21234d;fill-opacity:1;fill-rule:nonzero;stroke:none"
               id="path276" />
          </g>
          <g
             id="g278"
             transform="translate(121.6115,527.6573)">
            <path
               d="m 0,0 -0.164,-0.55 c -0.296,-0.241 -0.561,-0.405 -0.797,-0.494 -0.236,-0.088 -0.531,-0.133 -0.883,-0.133 -0.503,0 -0.947,0.122 -1.333,0.365 -0.303,0.196 -0.56,0.456 -0.771,0.779 -0.211,0.324 -0.373,0.674 -0.487,1.052 -0.173,0.571 -0.259,1.19 -0.259,1.859 0,1.145 0.255,2.08 0.766,2.804 0.51,0.725 1.231,1.088 2.162,1.088 0.32,0 0.607,-0.036 0.862,-0.109 0.254,-0.073 0.55,-0.202 0.886,-0.387 L 0,6.203 C -0.038,6.033 -0.067,5.818 -0.089,5.56 -0.124,5.149 -0.147,4.77 -0.156,4.42 h -0.278 c -0.005,0.401 -0.016,0.72 -0.035,0.96 -0.159,0.254 -0.337,0.444 -0.535,0.57 -0.198,0.125 -0.451,0.188 -0.758,0.188 -0.557,0 -1.003,-0.27 -1.337,-0.81 C -3.433,4.789 -3.6,4.035 -3.6,3.069 c 0,-0.585 0.057,-1.096 0.169,-1.532 0.112,-0.436 0.262,-0.796 0.45,-1.082 0.187,-0.285 0.375,-0.493 0.564,-0.624 0.259,-0.174 0.571,-0.261 0.939,-0.261 0.241,0 0.47,0.042 0.686,0.125 0.215,0.084 0.45,0.227 0.703,0.43 z"
               style="fill:#21234d;fill-opacity:1;fill-rule:nonzero;stroke:none"
               id="path280" />
          </g>
          <g
             id="g282"
             transform="translate(122.1793,530.3942)">
            <path
               d="M 0,0 C 0,0.664 0.066,1.244 0.197,1.738 0.329,2.233 0.517,2.652 0.761,2.998 1.005,3.343 1.27,3.592 1.557,3.744 1.924,3.937 2.324,4.033 2.758,4.033 3.19,4.033 3.58,3.94 3.931,3.755 4.191,3.614 4.421,3.409 4.622,3.142 4.822,2.875 4.974,2.601 5.078,2.322 5.183,2.042 5.262,1.735 5.316,1.401 5.368,1.066 5.395,0.697 5.395,0.294 5.395,-0.389 5.318,-1.023 5.164,-1.608 5.05,-2.044 4.883,-2.431 4.664,-2.769 4.445,-3.107 4.196,-3.367 3.916,-3.549 3.533,-3.792 3.094,-3.914 2.602,-3.914 c -0.534,0 -0.991,0.148 -1.374,0.444 -0.383,0.296 -0.682,0.733 -0.9,1.311 C 0.109,-1.581 0,-0.862 0,0 m 1.095,0.321 c 0,-0.846 0.076,-1.547 0.227,-2.101 0.152,-0.554 0.347,-0.946 0.583,-1.175 0.237,-0.229 0.516,-0.343 0.839,-0.343 0.298,0 0.565,0.109 0.802,0.327 0.234,0.218 0.42,0.587 0.553,1.106 C 4.233,-1.345 4.3,-0.714 4.3,0.027 4.3,0.536 4.264,1.001 4.192,1.422 4.12,1.844 4.016,2.203 3.881,2.499 3.746,2.795 3.587,3.021 3.403,3.177 3.219,3.333 2.976,3.412 2.672,3.412 2.327,3.412 2.032,3.287 1.79,3.038 1.547,2.79 1.37,2.421 1.26,1.935 1.15,1.448 1.095,0.91 1.095,0.321 M 2.406,4.42 H 1.976 L 2.811,5.974 C 2.932,6.199 3.029,6.345 3.101,6.412 3.173,6.48 3.255,6.513 3.348,6.513 3.471,6.513 3.571,6.458 3.646,6.347 3.722,6.236 3.76,6.102 3.76,5.946 3.76,5.841 3.738,5.745 3.696,5.657 3.628,5.523 3.507,5.381 3.337,5.232 Z"
               style="fill:#21234d;fill-opacity:1;fill-rule:nonzero;stroke:none"
               id="path284" />
          </g>
        </g>
      </g>
      <g
         id="g286"
         transform="matrix(0.35277777,0,0,-0.35277777,58.584792,347.45389)">
        <g
           id="g288"
           clip-path="url(#clipPath292)">
          <g
             id="g294"
             transform="translate(128.1501,533.8439)">
            <path
               d="m 0,0 v 0.447 c 0.055,0 0.244,-0.007 0.569,-0.022 0.158,-0.007 0.383,-0.011 0.675,-0.011 0.249,0 0.462,0.007 0.639,0.022 0.294,0.018 0.537,0.027 0.729,0.027 0.371,0 0.65,-0.04 0.835,-0.122 C 3.632,0.259 3.789,0.089 3.92,-0.169 4.049,-0.427 4.115,-0.741 4.115,-1.112 4.115,-1.551 4.026,-1.951 3.848,-2.311 3.671,-2.671 3.397,-2.956 3.028,-3.166 3.087,-3.33 3.154,-3.497 3.23,-3.668 3.306,-3.839 3.351,-3.943 3.363,-3.979 l 0.041,-0.103 0.55,-1.27 C 4.101,-5.691 4.181,-5.872 4.193,-5.897 4.371,-6.261 4.48,-6.475 4.52,-6.54 l 0.117,-0.137 c 0.038,-0.026 0.113,-0.04 0.224,-0.044 v -0.452 c -0.365,0.015 -0.629,0.022 -0.793,0.022 -0.189,0 -0.377,-0.007 -0.564,-0.022 -0.012,0.08 -0.041,0.183 -0.086,0.311 l -0.76,1.924 c -0.218,0.552 -0.403,0.986 -0.555,1.302 -0.075,0.161 -0.149,0.28 -0.22,0.36 l 0.04,0.18 c 0.284,-0.014 0.498,0.03 0.643,0.134 0.144,0.103 0.266,0.289 0.366,0.556 0.099,0.267 0.149,0.566 0.149,0.896 0,0.334 -0.052,0.612 -0.157,0.834 C 2.82,-0.454 2.691,-0.3 2.537,-0.213 2.438,-0.158 2.26,-0.131 2.004,-0.131 1.89,-0.131 1.778,-0.145 1.667,-0.175 1.659,-0.305 1.652,-0.599 1.645,-1.057 1.631,-2.086 1.624,-2.772 1.624,-3.118 c 0,-0.545 0.003,-1.123 0.011,-1.733 0.009,-0.748 0.016,-1.174 0.021,-1.275 0.007,-0.204 0.02,-0.336 0.039,-0.398 l 0.046,-0.08 0.103,-0.057 c 0.047,-0.014 0.185,-0.025 0.412,-0.032 v -0.48 C 1.851,-7.151 1.441,-7.14 1.027,-7.14 0.658,-7.14 0.315,-7.151 0,-7.173 v 0.48 c 0.27,0.014 0.43,0.034 0.48,0.059 l 0.062,0.055 0.03,0.153 c 0.017,0.141 0.029,0.356 0.035,0.643 l 0.029,1.591 v 2.023 l -0.014,1.15 C 0.617,-0.565 0.603,-0.293 0.579,-0.202 L 0.526,-0.109 C 0.469,-0.065 0.294,-0.029 0,0"
               style="fill:#21234d;fill-opacity:1;fill-rule:nonzero;stroke:none"
               id="path296" />
          </g>
        </g>
      </g>
      <g
         id="g298"
         transform="matrix(0.35277777,0,0,-0.35277777,58.584792,347.45389)">
        <g
           id="g300"
           clip-path="url(#clipPath304)">
          <g
             id="g306"
             transform="translate(133.5797,526.671)">
            <path
               d="M 0,0 V 0.262 L 0.099,0.349 C 0.19,0.425 0.272,0.505 0.348,0.589 0.374,1.076 0.387,1.866 0.387,2.96 v 0.894 c 0,0.48 -0.006,1.183 -0.018,2.109 C 0.362,6.476 0.347,6.802 0.323,6.944 L 0.295,7.021 0.206,7.086 C 0.166,7.1 0.016,7.133 -0.242,7.184 v 0.442 l 1.29,-0.033 c 0.152,0 0.437,0.009 0.857,0.027 0.303,0.011 0.545,0.017 0.728,0.017 0.419,0 0.755,-0.04 1.008,-0.118 C 3.893,7.441 4.112,7.316 4.3,7.143 4.487,6.971 4.645,6.766 4.773,6.53 4.903,6.294 5.001,6.039 5.067,5.767 5.178,5.309 5.234,4.808 5.234,4.263 5.234,3.568 5.151,2.949 4.985,2.404 4.819,1.859 4.592,1.403 4.301,1.036 4.011,0.668 3.696,0.404 3.358,0.243 3.019,0.081 2.61,0 2.132,0 L 1.076,0.033 Z m 1.421,0.665 c 0.22,-0.051 0.431,-0.076 0.633,-0.076 0.314,0 0.594,0.051 0.838,0.153 0.18,0.076 0.338,0.186 0.473,0.332 0.135,0.145 0.265,0.36 0.389,0.643 0.124,0.284 0.221,0.622 0.29,1.014 0.068,0.392 0.103,0.816 0.103,1.27 0,0.414 -0.035,0.815 -0.103,1.202 C 3.975,5.59 3.862,5.929 3.706,6.219 3.55,6.51 3.352,6.721 3.113,6.852 2.873,6.983 2.511,7.048 2.026,7.048 1.843,7.048 1.641,7.024 1.421,6.977 1.397,6.461 1.386,5.489 1.386,4.061 V 2.807 c 0,-1.083 0.011,-1.797 0.035,-2.142"
               style="fill:#21234d;fill-opacity:1;fill-rule:nonzero;stroke:none"
               id="path308" />
          </g>
          <g
             id="g310"
             transform="translate(139.5602,530.3942)">
            <path
               d="M 0,0 C 0,0.664 0.066,1.244 0.197,1.739 0.328,2.233 0.516,2.652 0.76,2.998 1.004,3.343 1.27,3.592 1.556,3.744 1.923,3.937 2.324,4.033 2.757,4.033 3.188,4.033 3.579,3.94 3.929,3.755 4.191,3.614 4.421,3.409 4.621,3.142 4.821,2.875 4.974,2.601 5.077,2.322 5.182,2.042 5.261,1.735 5.314,1.401 5.367,1.066 5.394,0.697 5.394,0.294 5.394,-0.389 5.316,-1.023 5.162,-1.608 5.049,-2.044 4.883,-2.431 4.664,-2.769 4.445,-3.107 4.195,-3.367 3.916,-3.549 3.532,-3.792 3.094,-3.914 2.6,-3.914 c -0.532,0 -0.99,0.148 -1.373,0.444 -0.382,0.296 -0.682,0.733 -0.9,1.311 C 0.108,-1.581 0,-0.862 0,0 m 1.094,0.321 c 0,-0.846 0.076,-1.547 0.228,-2.101 0.151,-0.554 0.345,-0.946 0.583,-1.175 0.236,-0.229 0.516,-0.343 0.838,-0.343 0.298,0 0.566,0.109 0.801,0.327 0.236,0.218 0.421,0.587 0.554,1.106 0.134,0.52 0.201,1.151 0.201,1.892 0,0.509 -0.036,0.974 -0.108,1.395 C 4.119,1.844 4.015,2.203 3.88,2.499 3.745,2.795 3.586,3.021 3.402,3.177 3.218,3.333 2.975,3.412 2.672,3.412 2.326,3.412 2.031,3.287 1.789,3.038 1.546,2.79 1.369,2.421 1.259,1.935 1.149,1.448 1.094,0.91 1.094,0.321"
               style="fill:#21234d;fill-opacity:1;fill-rule:nonzero;stroke:none"
               id="path312" />
          </g>
        </g>
      </g>
      <g
         id="g314"
         transform="matrix(0.35277777,0,0,-0.35277777,58.584792,347.45389)">
        <g
           id="g316"
           clip-path="url(#clipPath320)">
          <g
             id="g322"
             transform="translate(145.8068,526.6716)">
            <path
               d="M 0,0 V 0.256 C 0.125,0.368 0.23,0.481 0.313,0.594 0.327,0.772 0.337,0.99 0.341,1.248 0.35,1.778 0.355,2.743 0.355,4.142 0.355,4.516 0.35,5.1 0.338,5.892 0.33,6.502 0.317,6.85 0.298,6.939 L 0.245,7.053 C 0.196,7.104 0.018,7.144 -0.288,7.173 V 7.625 L -0.124,7.62 0.366,7.598 C 0.527,7.594 0.727,7.592 0.967,7.592 c 0.237,0 0.423,0.004 0.558,0.011 0.341,0.022 0.563,0.033 0.667,0.033 0.391,0 0.693,-0.062 0.905,-0.185 C 3.309,7.327 3.464,7.149 3.562,6.913 3.661,6.679 3.71,6.417 3.71,6.126 3.71,5.814 3.654,5.523 3.541,5.254 3.428,4.985 3.284,4.776 3.109,4.627 3.005,4.536 2.773,4.415 2.413,4.262 2.844,4.182 3.144,4.077 3.314,3.946 3.483,3.815 3.618,3.61 3.72,3.333 3.823,3.055 3.873,2.745 3.873,2.403 3.873,2.044 3.821,1.718 3.717,1.425 3.613,1.132 3.478,0.883 3.314,0.676 3.149,0.468 2.96,0.304 2.747,0.182 2.534,0.061 2.267,0 1.947,0 L 0.754,0.032 C 0.561,0.032 0.31,0.021 0,0 M 1.347,4.48 1.553,4.475 c 0.161,0 0.31,0.02 0.447,0.06 0.138,0.04 0.25,0.109 0.335,0.209 0.085,0.1 0.157,0.25 0.214,0.448 0.059,0.198 0.087,0.425 0.087,0.683 0,0.262 -0.033,0.484 -0.099,0.668 C 2.471,6.726 2.384,6.857 2.278,6.936 2.171,7.014 2.011,7.053 1.798,7.053 1.644,7.053 1.504,7.037 1.379,7.009 1.364,6.748 1.356,6.446 1.354,6.105 L 1.347,5.259 Z M 1.361,0.61 c 0.078,-0.025 0.225,-0.038 0.44,-0.038 0.295,0 0.532,0.148 0.713,0.445 0.181,0.296 0.272,0.72 0.272,1.271 0,0.393 -0.048,0.711 -0.142,0.955 C 2.549,3.486 2.424,3.658 2.267,3.758 2.111,3.858 1.895,3.908 1.62,3.908 1.523,3.908 1.432,3.901 1.347,3.886 V 1.401 L 1.354,0.752 Z"
               style="fill:#21234d;fill-opacity:1;fill-rule:nonzero;stroke:none"
               id="path324" />
          </g>
          <g
             id="g326"
             transform="translate(150.2658,526.671)">
            <path
               d="m 0,0 v 0.453 c 0.192,0.022 0.307,0.04 0.343,0.056 L 0.438,0.586 0.517,0.75 c 0.028,0.074 0.109,0.351 0.244,0.831 0.062,0.225 0.18,0.67 0.355,1.335 l 0.928,3.51 0.312,1.237 H 2.861 L 4.45,1.973 4.67,1.226 4.812,0.725 4.879,0.583 4.952,0.518 C 4.979,0.503 5.049,0.491 5.16,0.48 L 5.317,0.453 V 0 L 4.329,0.033 3.081,0 V 0.453 C 3.368,0.471 3.53,0.495 3.567,0.526 l 0.055,0.155 c 0,0.092 -0.028,0.24 -0.082,0.447 l -0.306,1.2 H 1.408 L 1.251,1.674 C 1.133,1.172 1.074,0.86 1.074,0.736 L 1.131,0.551 C 1.187,0.5 1.357,0.467 1.638,0.453 V 0 L 0.818,0.033 Z M 1.571,2.949 C 1.794,2.938 2.046,2.933 2.328,2.933 c 0.273,0 0.517,0.005 0.732,0.016 L 2.3,5.762 Z"
               style="fill:#21234d;fill-opacity:1;fill-rule:nonzero;stroke:none"
               id="path328" />
          </g>
          <g
             id="g330"
             transform="translate(112.3722,532.4327)">
            <path
               d="M 0,0 C -0.066,0.276 -0.164,0.532 -0.293,0.768 -0.422,1.004 -0.58,1.209 -0.767,1.381 -0.955,1.554 -1.175,1.679 -1.428,1.757 -1.682,1.836 -2.017,1.875 -2.434,1.875 -2.619,1.875 -2.861,1.869 -3.162,1.858 -3.584,1.84 -3.871,1.831 -4.022,1.831 L -5.309,1.864 V 1.422 c 0.271,-0.054 0.417,-0.087 0.441,-0.098 l 0.096,-0.065 0.029,-0.093 c 0.023,-0.149 0.04,-0.489 0.049,-1.019 l 0.014,-1.581 v -0.578 -0.79 c 0,-1.094 -0.013,-1.884 -0.038,-2.371 -0.077,-0.084 -0.159,-0.164 -0.25,-0.24 L -5.067,-5.5 v -0.262 l 1.077,0.033 1.055,-0.033 c 0.479,0 0.888,0.081 1.226,0.243 0.339,0.161 0.653,0.425 0.944,0.793 0.289,0.367 0.518,0.823 0.684,1.368 0.166,0.545 0.248,1.164 0.248,1.859 C 0.167,-0.954 0.111,-0.455 0,0 m -1.025,-3.031 c -0.067,-0.392 -0.164,-0.73 -0.288,-1.014 -0.124,-0.283 -0.254,-0.498 -0.389,-0.643 -0.135,-0.145 -0.294,-0.256 -0.476,-0.333 -0.242,-0.101 -0.52,-0.152 -0.835,-0.152 -0.201,0 -0.412,0.025 -0.633,0.076 -0.023,0.345 -0.035,1.059 -0.035,2.142 v 0.886 c 0.147,0.021 0.33,0.031 0.552,0.031 0.256,0 0.466,-0.02 0.629,-0.059 l 0.153,-0.137 c 0.038,-0.098 0.056,-0.357 0.053,-0.779 h 0.306 l -0.015,1.193 0.015,1.199 h -0.288 c -0.005,-0.323 -0.021,-0.554 -0.05,-0.692 l -0.051,-0.114 c -0.022,-0.022 -0.098,-0.035 -0.226,-0.038 -0.339,-0.015 -0.535,-0.022 -0.59,-0.022 -0.169,0 -0.332,0.009 -0.488,0.026 v 0.027 l 0.014,1.81 c 0.003,0.305 0.01,0.584 0.021,0.839 0.221,0.047 0.422,0.071 0.605,0.071 0.485,0 0.847,-0.065 1.085,-0.196 0.238,-0.131 0.436,-0.342 0.593,-0.633 0.158,-0.29 0.271,-0.629 0.338,-1.016 0.067,-0.387 0.101,-0.788 0.101,-1.202 0,-0.454 -0.034,-0.878 -0.101,-1.27"
               style="fill:#21234d;fill-opacity:1;fill-rule:nonzero;stroke:none"
               id="path332" />
          </g>
        </g>
      </g>
    </g>
  </g>
</svg>
